<svg width="2" height="10" viewBox="0 0 2 10" fill="none" xmlns="http://www.w3.org/2000/svg">
<path d="M1.00521 5.95703C1.53947 5.95703 1.81453 5.63965 1.8304 5.09481L1.92562 1.80461C1.93091 1.71997 1.9362 1.62476 1.9362 1.55599C1.9362 0.968831 1.59237 0.625 1.0105 0.625C0.42334 0.625 0.0742188 0.968831 0.0742188 1.55599C0.0742188 1.62476 0.0795085 1.71997 0.0795085 1.80461L0.180013 5.09481C0.195882 5.63965 0.465658 5.95703 1.00521 5.95703Z" fill="white"/>
<path d="M1.00264 9.5C1.55145 9.5 2 9.05989 2 8.49721C2 7.94011 1.55145 7.5 1.00264 7.5C0.448549 7.5 0 7.94011 0 8.49721C0 9.05989 0.448549 9.5 1.00264 9.5Z" fill="white"/>
</svg>
