<svg width="119" height="32" viewBox="0 0 119 32" fill="none" xmlns="http://www.w3.org/2000/svg">
<g clip-path="url(#clip0_674_1209)">
<ellipse cx="9.12986" cy="10.0986" rx="9.12986" ry="9.12986" fill="#6A38DB"/>
<ellipse cx="20.9071" cy="13.2396" rx="9.76894" ry="9.76895" fill="#8860E2"/>
</g>
<g clip-path="url(#clip1_674_1209)">
<ellipse cx="24.2806" cy="23.971" rx="8.02958" ry="8.02958" fill="#6A38DB"/>
<ellipse cx="20.9071" cy="13.2397" rx="9.76894" ry="9.76895" fill="#8860E2"/>
</g>
<g clip-path="url(#clip2_674_1209)">
<ellipse cx="27.7606" cy="6.42367" rx="6.42367" ry="6.42367" fill="#6A38DB"/>
<ellipse cx="20.9071" cy="13.2377" rx="9.76895" ry="9.76895" fill="#8860E2"/>
</g>
<path d="M43.0967 8.80698H46.5758V10.9567C46.953 10.127 47.4904 9.53298 48.1881 9.17469C48.8859 8.81641 49.7344 8.63726 50.7339 8.63726H51.639V11.9184H50.3096C49.2536 11.9184 48.405 12.2484 47.7639 12.9084C47.1227 13.5684 46.8021 14.4736 46.8021 15.6239V24.1945H43.0967V8.80698Z" fill="#141414"/>
<path d="M53.5927 8.80698H57.2982V24.1945H53.5927V8.80698Z" fill="#141414"/>
<path d="M60.2261 8.80698H63.7053V10.6173C64.271 9.93841 64.9687 9.41041 65.7984 9.03327C66.647 8.65612 67.5993 8.46755 68.6553 8.46755C70.0885 8.46755 71.399 8.82583 72.5871 9.54241C73.7751 10.2401 74.7085 11.2019 75.3874 12.4276C76.0662 13.6533 76.4057 15.011 76.4057 16.5007C76.4057 17.9905 76.0662 19.3482 75.3874 20.5739C74.7085 21.7996 73.7751 22.7708 72.5871 23.4874C71.4179 24.1851 70.0979 24.5339 68.627 24.5339C67.6842 24.5339 66.8073 24.3831 65.9964 24.0814C65.1856 23.7608 64.4973 23.3082 63.9316 22.7237V29.8517H60.2261V8.80698ZM63.9316 16.5007C63.9316 17.387 64.1107 18.1885 64.469 18.9051C64.8461 19.6028 65.3553 20.1496 65.9964 20.5456C66.6564 20.9416 67.3919 21.1396 68.2027 21.1396C69.4662 21.1396 70.5033 20.7059 71.3142 19.8385C72.1439 18.9522 72.5588 17.8396 72.5588 16.5007C72.5588 15.6333 72.3702 14.8507 71.993 14.153C71.6159 13.4364 71.0973 12.8801 70.4373 12.4841C69.7773 12.0693 69.0325 11.8619 68.2027 11.8619C67.3919 11.8619 66.6564 12.0599 65.9964 12.4559C65.3553 12.8519 64.8461 13.4082 64.469 14.1247C64.1107 14.8225 63.9316 15.6145 63.9316 16.5007Z" fill="#141414"/>
<path d="M78.7374 8.80698H82.2165V10.6173C82.7822 9.93841 83.48 9.41041 84.3097 9.03327C85.1583 8.65612 86.1105 8.46755 87.1666 8.46755C88.5997 8.46755 89.9103 8.82583 91.0983 9.54241C92.2863 10.2401 93.2197 11.2019 93.8986 12.4276C94.5775 13.6533 94.9169 15.011 94.9169 16.5007C94.9169 17.9905 94.5775 19.3482 93.8986 20.5739C93.2197 21.7996 92.2863 22.7708 91.0983 23.4874C89.9291 24.1851 88.6091 24.5339 87.1383 24.5339C86.1954 24.5339 85.3185 24.3831 84.5077 24.0814C83.6968 23.7608 83.0085 23.3082 82.4428 22.7237V29.8517H78.7374V8.80698ZM82.4428 16.5007C82.4428 17.387 82.622 18.1885 82.9802 18.9051C83.3574 19.6028 83.8665 20.1496 84.5077 20.5456C85.1677 20.9416 85.9031 21.1396 86.714 21.1396C87.9774 21.1396 89.0146 20.7059 89.8254 19.8385C90.6552 18.9522 91.07 17.8396 91.07 16.5007C91.07 15.6333 90.8814 14.8507 90.5043 14.153C90.1271 13.4364 89.6086 12.8801 88.9486 12.4841C88.2886 12.0693 87.5437 11.8619 86.714 11.8619C85.9031 11.8619 85.1677 12.0599 84.5077 12.4559C83.8665 12.8519 83.3574 13.4082 82.9802 14.1247C82.622 14.8225 82.4428 15.6145 82.4428 16.5007Z" fill="#141414"/>
<path d="M97.2486 2.78208H100.954V24.1945H97.2486V2.78208Z" fill="#141414"/>
<path d="M111.18 24.5339C109.633 24.5339 108.257 24.1757 107.05 23.4591C105.862 22.7425 104.929 21.7714 104.25 20.5456C103.59 19.3199 103.26 17.9622 103.26 16.4725C103.26 14.9639 103.59 13.6062 104.25 12.3993C104.929 11.1736 105.843 10.2118 106.993 9.51413C108.163 8.81641 109.464 8.46755 110.897 8.46755C112.443 8.46755 113.782 8.80698 114.913 9.48584C116.045 10.1458 116.903 11.051 117.487 12.2013C118.091 13.3516 118.393 14.615 118.393 15.9916C118.393 16.6327 118.327 17.1513 118.195 17.5473H107.107C107.22 18.6788 107.653 19.5839 108.408 20.2628C109.162 20.9416 110.095 21.2811 111.208 21.2811C112.038 21.2811 112.745 21.1114 113.329 20.7719C113.933 20.4136 114.414 19.9233 114.772 19.3011L117.77 20.7719C117.299 21.9034 116.469 22.8179 115.281 23.5157C114.093 24.1945 112.726 24.5339 111.18 24.5339ZM114.433 14.7187C114.338 13.7759 113.971 13.0122 113.329 12.4276C112.688 11.8241 111.877 11.5224 110.897 11.5224C109.954 11.5224 109.153 11.8053 108.493 12.371C107.833 12.9179 107.399 13.7004 107.191 14.7187H114.433Z" fill="#141414"/>
<path d="M57.5686 4.46015C57.5686 5.64088 56.6114 6.59804 55.4307 6.59804C54.2499 6.59804 53.2928 5.64088 53.2928 4.46015C53.2928 3.27943 54.2499 2.32227 55.4307 2.32227C56.6114 2.32227 57.5686 3.27943 57.5686 4.46015Z" fill="#141414"/>
<defs>
<clipPath id="clip0_674_1209">
<rect y="0.96875" width="18.2597" height="18.2597" rx="9.12986" fill="white"/>
</clipPath>
<clipPath id="clip1_674_1209">
<rect x="16.251" y="15.9414" width="16.0592" height="16.0592" rx="8.02958" fill="white"/>
</clipPath>
<clipPath id="clip2_674_1209">
<rect x="21.3369" width="12.8473" height="12.8473" rx="6.42367" fill="white"/>
</clipPath>
</defs>
</svg>
