<svg xmlns="http://www.w3.org/2000/svg" xmlns:xlink="http://www.w3.org/1999/xlink" viewBox="0 0 119 32"><defs><clipPath id="a"><path d="M9.13,1h0a9.13,9.13,0,0,1,9.13,9.13h0a9.13,9.13,0,0,1-9.13,9.13h0A9.13,9.13,0,0,1,0,10.1H0A9.13,9.13,0,0,1,9.13,1Z" style="fill:none"/></clipPath><clipPath id="b"><rect x="16.25" y="15.94" width="16.06" height="16.06" rx="8.03" style="fill:none"/></clipPath><clipPath id="c"><path d="M27.76,0h0a6.42,6.42,0,0,1,6.42,6.42h0a6.42,6.42,0,0,1-6.42,6.43h0a6.42,6.42,0,0,1-6.42-6.43h0A6.42,6.42,0,0,1,27.76,0Z" style="fill:none"/></clipPath></defs><g style="clip-path:url(#a)"><circle cx="9.13" cy="10.1" r="9.13" style="fill:#6a38db"/><circle cx="20.91" cy="13.24" r="9.77" style="fill:#8860e2"/></g><g style="clip-path:url(#b)"><circle cx="24.28" cy="23.97" r="8.03" style="fill:#6a38db"/><circle cx="20.91" cy="13.24" r="9.77" style="fill:#8860e2"/></g><g style="clip-path:url(#c)"><circle cx="27.76" cy="6.42" r="6.42" style="fill:#6a38db"/><circle cx="20.91" cy="13.24" r="9.77" style="fill:#8860e2"/></g><path d="M43.1,8.81h3.48V11a3.55,3.55,0,0,1,1.61-1.79,5.61,5.61,0,0,1,2.54-.53h.91v3.28H50.31a3.39,3.39,0,0,0-2.55,1,3.72,3.72,0,0,0-1,2.71v8.57H43.1Z" style="fill:#fff"/><path d="M53.59,8.81H57.3V24.19H53.59Z" style="fill:#fff"/><path d="M60.23,8.81h3.48v1.81A5.79,5.79,0,0,1,65.8,9a7.08,7.08,0,0,1,2.86-.56,7.65,7.65,0,0,1,6.73,4,8.23,8.23,0,0,1,1,4.07,8.23,8.23,0,0,1-1,4.07,7.7,7.7,0,0,1-2.8,2.92,8,8,0,0,1-6.59.59,5.79,5.79,0,0,1-2.07-1.36v7.13h-3.7Zm3.7,7.69a5.3,5.3,0,0,0,.54,2.41A4.39,4.39,0,0,0,66,20.55a4.24,4.24,0,0,0,2.2.59,4,4,0,0,0,3.11-1.3,4.71,4.71,0,0,0,1.25-3.34A4.84,4.84,0,0,0,72,14.15a4.3,4.3,0,0,0-6-1.69,4.24,4.24,0,0,0-1.53,1.66A5.12,5.12,0,0,0,63.93,16.5Z" style="fill:#fff"/><path d="M78.74,8.81h3.48v1.81A5.79,5.79,0,0,1,84.31,9a7.08,7.08,0,0,1,2.86-.56,7.65,7.65,0,0,1,6.73,4,8.23,8.23,0,0,1,1,4.07,8.23,8.23,0,0,1-1,4.07,7.7,7.7,0,0,1-2.8,2.92,8,8,0,0,1-6.59.59,5.79,5.79,0,0,1-2.07-1.36v7.13h-3.7Zm3.7,7.69A5.3,5.3,0,0,0,83,18.91a4.39,4.39,0,0,0,1.53,1.64,4.24,4.24,0,0,0,2.2.59,4.08,4.08,0,0,0,3.12-1.3,4.7,4.7,0,0,0,1.24-3.34,4.84,4.84,0,0,0-.57-2.35,4.3,4.3,0,0,0-6-1.69A4.24,4.24,0,0,0,83,14.12,5.12,5.12,0,0,0,82.44,16.5Z" style="fill:#fff"/><path d="M97.25,2.78H101V24.19h-3.7Z" style="fill:#fff"/><path d="M111.18,24.53a7.9,7.9,0,0,1-4.13-1.07,7.75,7.75,0,0,1-2.8-2.91,8.49,8.49,0,0,1-1-4.08,8.34,8.34,0,0,1,1-4.07,7.83,7.83,0,0,1,10.66-2.91,6.54,6.54,0,0,1,2.58,2.71,8.06,8.06,0,0,1,.9,3.79,4.85,4.85,0,0,1-.2,1.56H107.11a4,4,0,0,0,4.1,3.73,4.13,4.13,0,0,0,2.12-.51,4.06,4.06,0,0,0,1.44-1.47l3,1.47a5.73,5.73,0,0,1-2.49,2.75A8.2,8.2,0,0,1,111.18,24.53Zm3.25-9.81a3.42,3.42,0,0,0-1.1-2.29,3.38,3.38,0,0,0-2.43-.91,3.6,3.6,0,0,0-2.41.85,4,4,0,0,0-1.3,2.35Z" style="fill:#fff"/><path d="M57.57,4.46a2.14,2.14,0,1,1-2.14-2.14A2.14,2.14,0,0,1,57.57,4.46Z" style="fill:#fff"/></svg>